# xmcd
#
# Track frame offsets:
#	150
#	15998
#	29434
#	47659
#	68616
#	89424
#	101238
#	119327
#	135330
#	150789
#	168113
#	183298
#
# Disc length: 2604 seconds
#
# Revision: 0
# Processed by: cddbd v1.5.2PL0 Copyright (c) Steve Scherf et al.
# Submitted via: EZCDAudioConverter 1.0.6.1
#
DISCID=860a2a0c
DTITLE=Donna Angelle and the Zydeco Posse' - Workin' It
DYEAR=2006
DGENRE=other
TTITLE0=Rodeo show
TTITLE1=Creole woman
TTITLE2=I rather go blind
TTITLE3=Old man sweetheart
TTITLE4=House dog
TTITLE5=Catin
TTITLE6=Rockin' it steady
TTITLE7=Groove me
TTITLE8=Don't let the green grass fool you
TTITLE9=Workin' it
TTITLE10=I got a pepper in my shoe
TTITLE11=Zydeco Santa
EXTD=
EXTT0=
EXTT1=
EXTT2=
EXTT3=
EXTT4=
EXTT5=
EXTT6=
EXTT7=
EXTT8=
EXTT9=
EXTT10=
EXTT11=
PLAYORDER=
